<?xml version="1.0" standalone="no"?><!DOCTYPE svg PUBLIC "-//W3C//DTD SVG 1.1//EN" "http://www.w3.org/Graphics/SVG/1.1/DTD/svg11.dtd"><svg t="1693133251512" class="icon" viewBox="0 0 1351 1024" version="1.1" xmlns="http://www.w3.org/2000/svg" p-id="13826" xmlns:xlink="http://www.w3.org/1999/xlink" width="84.4375" height="64"><path d="M314.447322 798.49307a25.247595 25.247595 0 0 1-17.788078-42.748769l176.733166-176.733167a25.247595 25.247595 0 1 1 35.576157 35.576157l-176.733166 176.733167a24.960691 24.960691 0 0 1-17.788079 7.172612z" fill="#CDC1AD" p-id="13827"></path><path d="M314.447322 798.49307a24.960691 24.960691 0 0 1-21.230932-11.763084L3.729758 320.510188a25.247595 25.247595 0 0 1 34.715444-34.715444l465.932893 289.486632a25.247595 25.247595 0 1 1-26.395213 42.748769L102.998712 385.063698l232.679543 374.98417a25.247595 25.247595 0 0 1-21.230933 38.445202z" fill="#0E4F53" p-id="13828"></path><path d="M345.719912 492.939787a25.247595 25.247595 0 0 1-18.935697-41.601151l112.466561-128.533212a25.247595 25.247595 0 0 1 37.871393 32.994016l-65.701129 75.168977 55.659471-9.754753a25.247595 25.247595 0 0 1 8.607135 49.634477l-125.377262 21.804742z" fill="#9B4537" p-id="13829"></path><path d="M571.513746 814.559722a25.247595 25.247595 0 0 1-10.615466-47.91305l272.559267-128.533212a25.247595 25.247595 0 0 1 21.517836 45.330909l-273.133075 128.533212a24.960691 24.960691 0 0 1-10.328562 2.582141z" fill="#CDC1AD" p-id="13830"></path><path d="M698.038627 904.934636a24.960691 24.960691 0 0 1-14.632129-4.590472l-112.466561-80.333257a25.247595 25.247595 0 1 1 28.690449-40.740438l102.424904 73.160645 210.587896-63.979701 243.008104-133.697493-178.741498 40.453533h-118.20465a25.247595 25.247595 0 0 1 0-50.208286h109.597515l350.884193-79.759448a25.247595 25.247595 0 0 1 17.788078 46.478527l-401.666287 220.916458-4.877376 2.008332-224.933121 68.283269a25.247595 25.247595 0 0 1-7.459517 2.008331zM845.79444 618.31705h-3.729759a24.960691 24.960691 0 0 1-20.944028-28.690449l62.545179-407.404378-172.142694 349.162766a25.161524 25.161524 0 0 1-45.044005-22.37855L910.634855 14.956905a24.960691 24.960691 0 0 1 47.339241 14.919033l-86.071348 567.210179a25.247595 25.247595 0 0 1-26.108308 21.230933z" fill="#0E4F53" p-id="13831"></path><path d="M539.380443 1023.426191a24.960691 24.960691 0 0 1-24.673786-28.690449l31.846398-209.153374a24.099977 24.099977 0 0 1 0-3.155949l77.177309-269.403318a25.247595 25.247595 0 0 1 37.584488-13.771415l151.198667 102.711808 2.008331 1.434522 47.626146 38.158297a25.247595 25.247595 0 0 1-32.133303 38.445202l-44.757101-37.297584-123.94274-82.341589-66.561842 234.114065-19.509505 138.574869 92.383246-82.341589a25.247595 25.247595 0 0 1 33.280921 37.584489l-143.452246 128.533212a24.960691 24.960691 0 0 1-18.074983 6.598803z" fill="#0E4F53" p-id="13832"></path><path d="M539.380443 1023.426191a25.247595 25.247595 0 0 1-24.960691-22.091646l-80.333257-659.880329a25.247595 25.247595 0 0 1 36.149966-25.5345l64.266606 32.133303a24.960691 24.960691 0 0 1 11.189275 11.189275l106.154662 211.161706a25.247595 25.247595 0 1 1-44.757101 22.665454l-102.424903-200.833143-15.492843-9.467849 74.595168 612.541089a25.247595 25.247595 0 0 1-21.804741 28.690449z" fill="#0E4F53" p-id="13833"></path><path d="M521.018556 873.662047a24.960691 24.960691 0 0 1-8.607135-1.434523l-206.858138-75.455881a25.247595 25.247595 0 1 1 17.214269-47.052336l206.858139 75.455881a25.247595 25.247595 0 0 1-8.607135 48.773763z" fill="#0E4F53" p-id="13834"></path></svg>